<?xml version="1.0" encoding="utf-8"?>
<!DOCTYPE svg PUBLIC "-//W3C//DTD SVG 20010904//EN" "http://www.w3.org/TR/2001/REC-SVG-20010904/DTD/svg10.dtd">
<svg version="1.0" xmlns="http://www.w3.org/2000/svg" width="514pt" height="514pt" viewBox="0 0 514 514" style="" preserveAspectRatio="xMidYMid meet">
<g fill="#615CEDFF" stroke="#615CEDFF">
<path d="M 195.000 2.062 C 140.174 2.821 123.881 4.056 104.799 8.894 C 74.749 16.514 46.144 37.091 27.321 64.628 C 13.002 85.576 7.538 102.015 3.932 135.000 C 2.275 150.160 1.226 251.553 2.090 313.055 C 3.009 378.429 4.051 392.154 9.621 412.288 C 17.407 440.433 38.290 468.675 64.628 486.679 C 85.575 500.997 101.986 506.452 135.000 510.070 C 149.986 511.713 251.109 512.751 313.050 511.898 C 378.364 510.999 392.128 509.957 412.288 504.379 C 440.496 496.576 468.623 475.752 486.798 449.216 C 500.949 428.555 506.539 411.676 510.053 379.000 C 511.721 363.494 512.729 264.936 511.878 200.637 C 511.060 138.862 510.023 124.190 505.105 104.798 C 497.470 74.686 476.952 46.199 449.216 27.202 C 422.884 9.167 399.748 3.628 346.000 2.490 C 301.704 1.553 243.686 1.388 195.000 2.062 M 399.292 256.750 C 422.667 297.280 421.299 294.672 420.615 297.400 C 419.848 300.456 400.363 334.035 397.926 336.500 C 396.104 338.344 394.254 338.539 374.238 339.000 L 352.527 339.500 330.013 378.471 C 314.194 405.854 306.757 417.818 305.000 418.706 C 301.522 420.465 261.507 420.490 258.105 418.735 C 256.597 417.958 251.869 410.837 245.355 399.532 C 239.660 389.650 235.000 381.275 235.000 380.920 C 235.000 380.566 240.780 370.201 247.844 357.888 C 272.503 314.905 321.320 230.470 323.663 226.750 L 326.025 223.000 352.926 223.000 L 379.827 223.000 399.292 256.750 M 163.333 179.750 C 164.974 182.358 248.676 327.138 252.512 334.000 C 252.665 334.275 246.838 344.850 239.563 357.500 L 226.335 380.500 184.792 380.761 C 146.362 381.002 143.092 380.890 141.157 379.261 C 138.138 376.718 118.000 341.115 118.000 338.320 C 118.000 337.025 122.719 327.785 128.487 317.787 C 137.970 301.349 138.847 299.412 137.647 297.554 C 136.917 296.425 126.536 278.532 114.579 257.793 C 97.296 227.819 92.978 219.616 93.521 217.793 C 94.801 213.494 115.164 178.999 117.308 177.497 C 119.039 176.284 123.391 176.000 140.210 176.000 L 160.975 176.000 163.333 179.750 M 255.982 96.286 C 257.616 97.112 262.054 103.772 268.966 115.771 L 279.467 134.000 325.178 134.000 L 370.888 134.000 373.315 136.250 C 377.027 139.692 396.000 173.439 396.000 176.600 C 396.000 178.227 391.874 186.498 385.750 197.149 L 375.500 214.975 283.982 214.987 L 192.463 215.000 179.779 193.250 C 172.803 181.288 166.822 170.767 166.487 169.872 C 165.606 167.511 205.706 98.258 209.000 96.451 C 212.429 94.570 252.315 94.430 255.982 96.286 M 362.055 277.331 L 372.610 295.500 395.805 295.768 C 408.562 295.916 419.000 296.389 419.000 296.820 C 419.000 297.772 405.714 319.585 400.092 327.864 C 397.193 332.134 395.251 333.984 393.270 334.365 C 391.746 334.657 371.286 335.219 347.802 335.612 L 305.103 336.328 309.925 327.914 C 338.519 278.016 350.331 257.997 350.864 258.528 C 351.214 258.877 356.250 267.338 362.055 277.331 "/></g>
<g fill="#FFFFFFFF" stroke="#FFFFFFFF">
<path d="M 208.752 96.812 C 207.240 97.741 206.003 99.063 206.002 99.750 C 206.001 100.438 205.649 101.000 205.219 101.000 C 204.790 101.000 203.881 102.238 203.199 103.750 C 201.185 108.219 198.752 112.391 197.329 113.813 C 196.598 114.545 196.000 115.754 196.000 116.500 C 196.000 117.246 195.432 118.452 194.738 119.179 C 194.044 119.905 192.910 121.625 192.219 123.000 C 191.527 124.375 189.867 127.300 188.532 129.500 C 187.196 131.700 185.628 134.546 185.048 135.825 C 184.467 137.104 183.319 138.824 182.496 139.647 C 181.673 140.470 181.000 141.754 181.000 142.500 C 181.000 143.246 180.438 144.468 179.750 145.214 C 178.114 146.990 175.493 151.571 173.433 156.250 C 172.525 158.313 171.430 160.000 171.000 160.000 C 170.569 160.000 169.934 161.125 169.589 162.500 C 169.244 163.875 168.494 165.000 167.922 165.000 C 167.350 165.000 167.160 165.450 167.500 166.000 C 167.840 166.550 167.641 167.000 167.058 167.000 C 166.475 167.000 174.436 177.800 184.749 191.000 L 203.499 215.000 278.143 215.000 L 352.786 215.000 357.457 202.250 C 360.026 195.238 363.101 186.712 364.292 183.304 L 366.456 177.108 378.978 176.804 C 392.543 176.475 394.007 176.626 393.986 178.357 C 393.979 178.986 391.332 184.225 388.104 190.000 C 384.876 195.775 383.037 199.825 384.017 199.000 C 384.996 198.175 385.592 197.163 385.340 196.750 C 385.088 196.338 385.359 196.000 385.941 196.000 C 386.523 196.000 387.000 195.357 387.000 194.571 C 387.000 193.786 387.707 192.436 388.571 191.571 C 389.436 190.707 389.832 190.000 389.453 190.000 C 389.073 190.000 389.856 188.538 391.193 186.750 C 394.608 182.183 396.331 177.456 395.618 174.614 C 395.283 173.280 393.428 169.788 391.495 166.853 C 389.563 163.919 387.700 160.614 387.356 159.509 C 387.012 158.404 386.431 157.275 386.064 157.000 C 385.698 156.725 382.759 151.907 379.533 146.293 C 376.306 140.679 372.954 135.729 372.083 135.293 C 371.213 134.857 349.858 134.275 324.629 134.000 L 278.758 133.500 269.129 116.961 C 263.833 107.864 258.705 99.314 257.732 97.961 L 255.965 95.500 233.732 95.312 C 214.407 95.149 211.141 95.345 208.752 96.812 M 247.757 98.615 C 255.114 99.257 254.680 98.755 267.385 121.283 C 271.660 128.863 276.301 136.125 277.698 137.421 C 281.681 141.114 301.056 175.343 299.665 176.228 C 297.930 177.332 211.000 177.181 211.000 176.074 C 211.000 175.565 215.725 167.024 221.500 157.094 C 227.275 147.164 232.000 138.572 232.000 138.001 C 232.000 137.430 227.001 128.366 220.891 117.858 C 212.228 102.958 210.082 98.557 211.141 97.864 C 212.442 97.013 234.621 97.468 247.757 98.615 "/></g>
<g fill="#FFFFFFFF" stroke="#FFFFFFFF">
<path d="M 115.864 180.000 C 111.175 185.595 110.886 186.000 111.579 186.000 C 111.941 186.000 111.124 187.463 109.763 189.250 C 108.401 191.038 106.968 193.513 106.576 194.750 C 106.185 195.988 105.480 197.000 105.010 197.000 C 104.540 197.000 103.635 198.575 103.000 200.500 C 102.365 202.425 101.479 204.000 101.031 204.000 C 100.583 204.000 99.942 205.094 99.607 206.430 C 99.271 207.767 98.427 209.454 97.731 210.180 C 97.034 210.906 95.656 213.326 94.668 215.557 L 92.870 219.614 99.452 230.769 C 103.072 236.905 106.331 242.729 106.694 243.713 C 107.057 244.696 107.635 245.725 107.978 246.000 C 108.321 246.275 115.420 258.308 123.754 272.739 L 138.907 298.979 137.341 302.739 C 136.480 304.808 135.479 306.725 135.117 307.000 C 134.755 307.275 133.897 308.625 133.210 310.000 C 132.523 311.375 130.867 314.300 129.532 316.500 C 128.196 318.700 126.628 321.546 126.048 322.825 C 125.467 324.104 124.319 325.824 123.496 326.647 C 122.673 327.470 122.000 328.717 122.000 329.418 C 122.000 330.120 121.136 331.690 120.081 332.907 C 117.382 336.018 118.064 340.352 122.376 347.500 C 124.366 350.800 125.996 353.856 125.997 354.292 C 125.999 354.728 126.473 355.628 127.052 356.292 C 127.630 356.956 130.893 362.220 134.302 367.989 C 138.002 374.251 141.508 378.981 143.000 379.724 C 144.859 380.651 155.018 380.974 182.625 380.985 C 220.358 381.000 226.000 380.684 226.000 378.553 C 226.000 376.857 245.797 327.949 247.137 326.334 C 247.835 325.494 247.869 325.000 247.231 325.000 C 246.673 325.000 245.475 323.313 244.567 321.250 C 242.508 316.572 239.886 311.990 238.252 310.216 C 237.565 309.470 236.729 307.767 236.393 306.430 C 236.058 305.094 235.426 304.000 234.989 304.000 C 234.553 304.000 233.684 302.763 233.058 301.250 C 232.433 299.738 230.810 296.700 229.452 294.500 C 228.094 292.300 226.438 289.263 225.772 287.750 C 225.106 286.238 224.245 285.000 223.858 285.000 C 223.472 285.000 222.635 283.425 222.000 281.500 C 221.365 279.575 220.474 278.000 220.020 278.000 C 219.567 278.000 218.684 276.763 218.058 275.250 C 217.433 273.738 215.823 270.700 214.480 268.500 C 213.138 266.300 211.473 263.375 210.781 262.000 C 210.090 260.625 208.956 258.905 208.262 258.179 C 207.568 257.452 207.000 256.246 207.000 255.500 C 207.000 254.754 206.402 253.545 205.671 252.813 C 204.430 251.572 202.940 249.078 199.811 243.000 C 199.103 241.625 197.956 239.906 197.263 239.180 C 196.570 238.454 195.729 236.767 195.393 235.430 C 195.058 234.094 194.417 233.000 193.969 233.000 C 193.521 233.000 192.635 231.425 192.000 229.500 C 191.365 227.575 190.474 226.000 190.020 226.000 C 189.567 226.000 188.692 224.763 188.076 223.250 C 186.577 219.572 183.886 215.036 181.785 212.647 C 180.841 211.575 180.305 210.315 180.594 209.849 C 180.882 209.382 180.566 209.000 179.892 209.000 C 179.218 209.000 178.940 208.727 179.273 208.394 C 179.607 208.060 179.022 206.867 177.974 205.742 C 176.927 204.617 176.305 203.315 176.594 202.849 C 176.882 202.382 176.714 202.000 176.220 202.000 C 175.362 202.000 172.721 197.416 172.571 195.667 C 172.532 195.208 172.226 195.108 171.891 195.443 C 171.157 196.176 132.783 203.117 132.275 202.608 C 130.937 201.270 119.000 180.282 119.000 179.267 C 119.000 178.322 121.990 177.972 130.750 177.888 C 137.213 177.827 146.775 177.431 152.000 177.009 C 159.445 176.409 156.881 176.271 140.148 176.371 L 118.797 176.500 115.864 180.000 M 171.016 270.500 C 171.991 272.150 181.140 287.900 191.346 305.500 L 209.903 337.500 188.027 337.769 L 166.151 338.038 154.955 357.535 C 148.797 368.258 143.379 377.266 142.915 377.553 C 142.451 377.839 141.000 376.370 139.691 374.287 C 134.786 366.485 122.000 341.245 122.000 339.366 C 122.000 338.292 126.725 329.127 132.500 319.000 C 138.275 308.873 143.000 299.929 143.000 299.125 C 143.000 298.321 147.725 289.480 153.500 279.477 C 159.275 269.474 164.005 260.662 164.012 259.895 C 164.019 259.128 165.198 260.525 166.633 263.000 C 168.068 265.475 170.040 268.850 171.016 270.500 "/></g>
<g fill="#FFFFFFFF" stroke="#FFFFFFFF">
<path d="M 357.500 227.039 C 347.050 228.578 336.475 230.102 334.000 230.427 C 323.716 231.775 321.699 232.301 319.894 234.106 C 318.852 235.148 317.939 236.338 317.865 236.750 C 317.543 238.534 315.617 242.000 314.948 242.000 C 314.546 242.000 313.934 243.125 313.589 244.500 C 313.244 245.875 312.494 247.000 311.922 247.000 C 311.350 247.000 311.160 247.450 311.500 248.000 C 311.840 248.550 311.690 249.000 311.167 249.000 C 310.645 249.000 309.934 250.125 309.589 251.500 C 309.244 252.875 308.494 254.000 307.922 254.000 C 307.350 254.000 307.160 254.450 307.500 255.000 C 307.840 255.550 307.641 256.000 307.059 256.000 C 306.477 256.000 306.000 256.643 306.000 257.429 C 306.000 258.214 305.418 259.452 304.708 260.179 C 303.997 260.905 302.817 262.963 302.086 264.750 C 301.355 266.538 300.411 268.000 299.987 268.000 C 299.563 268.000 298.934 269.125 298.589 270.500 C 298.244 271.875 297.494 273.000 296.922 273.000 C 296.350 273.000 296.160 273.450 296.500 274.000 C 296.840 274.550 296.641 275.000 296.059 275.000 C 295.477 275.000 295.000 275.643 295.000 276.429 C 295.000 277.214 294.213 278.645 293.250 279.607 C 292.288 280.570 291.654 281.389 291.842 281.429 C 292.444 281.554 289.705 287.000 289.040 287.000 C 288.689 287.000 287.832 288.575 287.136 290.500 C 286.440 292.425 285.498 294.000 285.044 294.000 C 284.589 294.000 283.934 295.125 283.589 296.500 C 283.244 297.875 282.494 299.000 281.922 299.000 C 281.350 299.000 281.160 299.450 281.500 300.000 C 281.840 300.550 281.641 301.000 281.059 301.000 C 280.477 301.000 280.000 301.643 280.000 302.429 C 280.000 303.214 279.213 304.645 278.250 305.607 C 277.288 306.570 276.654 307.389 276.842 307.429 C 277.444 307.554 274.705 313.000 274.040 313.000 C 273.689 313.000 272.832 314.575 272.136 316.500 C 271.440 318.425 270.498 320.000 270.044 320.000 C 269.589 320.000 268.934 321.125 268.589 322.500 C 268.244 323.875 267.494 325.000 266.922 325.000 C 266.350 325.000 266.160 325.450 266.500 326.000 C 266.840 326.550 266.641 327.000 266.059 327.000 C 265.477 327.000 265.000 327.643 265.000 328.429 C 265.000 329.214 264.309 330.548 263.464 331.393 C 262.620 332.238 261.884 333.282 261.829 333.714 C 261.618 335.379 259.644 339.000 258.948 339.000 C 258.546 339.000 257.934 340.125 257.589 341.500 C 257.244 342.875 256.494 344.000 255.922 344.000 C 255.350 344.000 255.160 344.450 255.500 345.000 C 255.840 345.550 255.615 346.000 255.000 346.000 C 254.385 346.000 254.118 346.382 254.406 346.849 C 254.695 347.315 254.073 348.617 253.026 349.742 C 251.978 350.867 251.393 352.060 251.727 352.394 C 252.060 352.727 251.808 353.000 251.167 353.000 C 250.525 353.000 250.000 353.815 250.000 354.811 C 250.000 355.808 249.153 357.533 248.117 358.644 C 246.649 360.219 246.466 361.089 247.286 362.583 C 248.115 364.094 261.825 380.807 270.774 391.217 C 272.104 392.764 271.579 394.119 265.449 404.944 C 259.873 414.793 258.397 416.745 257.248 415.791 C 256.477 415.151 253.293 410.324 250.173 405.064 C 247.053 399.804 244.640 396.508 244.811 397.740 C 244.982 398.972 245.660 400.547 246.317 401.240 C 246.975 401.933 249.716 406.178 252.409 410.673 C 255.368 415.613 258.135 419.069 259.403 419.410 C 260.556 419.719 270.697 419.979 281.938 419.986 C 301.499 419.999 302.518 419.903 305.681 417.750 C 307.499 416.513 308.989 415.006 308.993 414.403 C 308.997 413.800 309.900 412.268 311.000 411.000 C 312.100 409.732 313.000 408.120 313.000 407.418 C 313.000 406.717 313.568 405.548 314.262 404.821 C 314.956 404.095 316.090 402.375 316.781 401.000 C 317.473 399.625 319.133 396.700 320.468 394.500 C 321.804 392.300 323.372 389.454 323.952 388.175 C 324.533 386.896 325.681 385.176 326.504 384.353 C 327.327 383.530 328.000 382.246 328.000 381.500 C 328.000 380.754 328.563 379.532 329.250 378.786 C 330.876 377.020 333.661 372.223 335.076 368.750 C 335.692 367.238 336.567 366.000 337.020 366.000 C 337.474 366.000 338.365 364.425 339.000 362.500 C 339.635 360.575 340.521 359.000 340.969 359.000 C 341.417 359.000 342.058 357.906 342.393 356.570 C 342.729 355.233 343.570 353.546 344.263 352.820 C 344.956 352.094 346.098 350.375 346.801 349.000 C 348.727 345.234 350.781 341.703 352.184 339.750 C 353.314 338.177 355.603 338.000 374.777 338.000 L 396.113 338.000 399.056 334.777 C 400.675 333.005 402.000 331.048 402.000 330.430 C 402.000 329.812 402.900 328.268 404.000 327.000 C 405.100 325.732 406.000 324.120 406.000 323.418 C 406.000 322.717 406.568 321.548 407.262 320.821 C 407.956 320.095 409.090 318.375 409.781 317.000 C 410.473 315.625 412.138 312.700 413.480 310.500 C 414.823 308.300 416.433 305.263 417.058 303.750 C 417.684 302.238 418.602 301.000 419.098 301.000 C 419.594 301.000 420.000 299.314 420.000 297.252 C 420.000 294.360 417.946 289.929 411.000 277.839 C 406.050 269.223 402.000 261.722 402.000 261.170 C 402.000 260.618 401.637 260.017 401.194 259.833 C 400.358 259.487 384.000 231.607 384.000 230.527 C 384.000 230.191 383.116 228.967 382.035 227.807 C 380.954 226.646 380.305 225.315 380.594 224.849 C 381.332 223.655 378.965 223.879 357.500 227.039 M 362.055 277.331 L 372.610 295.500 395.805 295.768 C 408.562 295.916 419.000 296.389 419.000 296.820 C 419.000 297.772 405.714 319.585 400.092 327.864 C 397.193 332.134 395.251 333.984 393.270 334.365 C 391.746 334.657 371.286 335.219 347.802 335.612 L 305.103 336.328 309.925 327.914 C 338.519 278.016 350.331 257.997 350.864 258.528 C 351.214 258.877 356.250 267.338 362.055 277.331 "/></g>
<g fill="#C0BEF8FF" stroke="#C0BEF8FF">
<path d="M 211.141 97.864 C 210.082 98.557 212.228 102.958 220.891 117.858 C 227.001 128.366 232.000 137.430 232.000 138.001 C 232.000 138.572 227.275 147.164 221.500 157.094 C 215.725 167.024 211.000 175.565 211.000 176.074 C 211.000 177.181 297.930 177.332 299.665 176.228 C 301.056 175.343 281.681 141.114 277.698 137.421 C 276.301 136.125 271.660 128.863 267.385 121.283 C 254.680 98.755 255.114 99.257 247.757 98.615 C 234.621 97.468 212.442 97.013 211.141 97.864 "/></g>
<g fill="#C0BEF8FF" stroke="#C0BEF8FF">
<path d="M 332.487 288.697 C 322.730 305.639 312.577 323.286 309.925 327.914 L 305.103 336.328 347.802 335.612 C 371.286 335.219 391.746 334.657 393.270 334.365 C 395.251 333.984 397.193 332.134 400.092 327.864 C 405.714 319.585 419.000 297.772 419.000 296.820 C 419.000 296.389 408.562 295.916 395.805 295.768 L 372.610 295.500 362.055 277.331 C 356.250 267.338 351.214 258.877 350.864 258.528 C 350.514 258.180 342.245 271.756 332.487 288.697 "/></g>
<g fill="#C0BEF8FF" stroke="#C0BEF8FF">
<path d="M 164.012 259.895 C 164.005 260.662 159.275 269.474 153.500 279.477 C 147.725 289.480 143.000 298.321 143.000 299.125 C 143.000 299.929 138.275 308.873 132.500 319.000 C 126.725 329.127 122.000 338.292 122.000 339.366 C 122.000 341.245 134.786 366.485 139.691 374.287 C 141.000 376.370 142.451 377.839 142.915 377.553 C 143.379 377.266 148.797 368.258 154.955 357.535 L 166.151 338.038 188.027 337.769 L 209.903 337.500 191.346 305.500 C 181.140 287.900 171.991 272.150 171.016 270.500 C 170.040 268.850 168.068 265.475 166.633 263.000 C 165.198 260.525 164.019 259.128 164.012 259.895 "/></g>
<g fill="#C0BEF8FF" stroke="#C0BEF8FF">
<path d="M 240.598 370.914 L 234.879 381.013 237.124 385.007 C 238.358 387.203 239.762 389.000 240.243 389.000 C 240.724 389.000 240.838 389.453 240.496 390.007 C 240.153 390.561 240.574 391.283 241.431 391.612 C 242.288 391.941 242.740 392.612 242.435 393.105 C 242.131 393.597 242.434 394.000 243.108 394.000 C 243.782 394.000 244.081 394.253 243.772 394.562 C 243.463 394.871 244.304 396.304 245.641 397.747 C 246.978 399.189 247.836 400.985 247.547 401.737 C 247.220 402.590 247.458 402.835 248.181 402.388 C 248.962 401.905 249.125 402.231 248.681 403.388 C 248.238 404.544 248.401 404.870 249.181 404.388 C 249.953 403.911 250.128 404.223 249.706 405.324 C 249.315 406.343 249.537 406.885 250.286 406.738 C 250.954 406.607 251.561 407.175 251.635 408.000 C 251.709 408.825 251.890 409.500 252.037 409.500 C 252.184 409.500 252.353 410.059 252.413 410.741 C 252.472 411.424 252.966 411.987 253.511 411.991 C 254.500 412.000 254.945 413.915 254.000 414.095 C 253.725 414.148 253.838 414.400 254.250 414.655 C 254.663 414.909 255.000 414.797 255.000 414.404 C 255.000 414.011 255.818 414.430 256.817 415.335 C 258.544 416.897 258.975 416.378 265.442 404.956 C 271.578 394.120 272.104 392.764 270.774 391.217 C 261.984 380.992 248.124 364.110 247.327 362.657 C 246.466 361.087 245.469 362.311 240.598 370.914 "/></g>
<g fill="#C0BEF8FF" stroke="#C0BEF8FF">
<path d="M 132.250 177.747 C 122.550 177.975 119.000 178.390 119.000 179.296 C 119.000 180.291 130.959 201.293 132.275 202.608 C 132.470 202.804 141.341 201.406 151.987 199.502 C 166.497 196.907 171.682 196.321 172.692 197.160 C 173.434 197.775 171.233 193.491 167.802 187.639 L 161.563 177.000 153.532 177.218 C 149.114 177.338 139.538 177.577 132.250 177.747 "/></g>
<g fill="#C0BEF8FF" stroke="#C0BEF8FF">
<path d="M 378.500 176.751 L 366.500 177.070 360.000 195.110 C 356.425 205.032 353.350 213.566 353.167 214.075 C 352.975 214.606 357.529 215.000 363.860 215.000 C 374.030 215.000 375.004 214.832 376.402 212.837 C 377.235 211.647 377.713 210.345 377.464 209.942 C 377.215 209.539 377.796 208.864 378.756 208.441 C 380.101 207.849 380.157 207.653 379.000 207.586 C 377.865 207.521 378.047 206.953 379.750 205.250 C 380.988 204.013 381.663 202.986 381.250 202.970 C 380.838 202.953 381.400 202.402 382.500 201.746 C 383.600 201.089 383.954 200.540 383.286 200.526 C 382.454 200.508 382.371 200.029 383.021 199.000 C 383.543 198.175 384.028 197.725 384.100 198.000 C 384.172 198.275 384.335 198.050 384.463 197.500 C 384.591 196.950 384.816 196.500 384.963 196.500 C 385.110 196.500 385.291 195.826 385.365 195.003 C 385.439 194.179 386.100 193.504 386.833 193.503 C 387.567 193.501 387.871 193.204 387.510 192.843 C 386.446 191.780 389.958 185.856 391.197 186.622 C 391.846 187.023 392.029 186.857 391.638 186.223 C 391.269 185.626 391.745 183.505 392.697 181.510 C 394.199 178.360 394.234 177.760 392.963 176.956 C 392.159 176.447 391.275 176.121 391.000 176.232 C 390.725 176.342 385.100 176.576 378.500 176.751 "/></g>
<g fill="#C0BEF8FF" stroke="#C0BEF8FF">
<path d="M 246.531 326.950 C 245.221 329.070 226.000 377.432 226.000 378.609 C 226.000 379.297 224.988 380.056 223.750 380.294 C 221.501 380.727 221.501 380.728 223.691 380.864 C 225.544 380.979 227.909 377.439 239.042 357.888 L 252.203 334.776 250.428 330.840 C 248.466 326.489 247.445 325.470 246.531 326.950 "/></g>
<g fill="#C0BEF8FF" stroke="#C0BEF8FF">
<path d="M 166.036 168.536 C 166.056 169.066 172.033 179.625 179.319 192.000 L 192.567 214.500 197.844 214.500 L 203.121 214.500 185.973 192.500 C 167.839 169.235 165.979 166.999 166.036 168.536 "/></g>
<g fill="#C0BEF8FF" stroke="#C0BEF8FF">
<path d="M 322.752 228.750 C 320.877 231.913 319.843 233.994 320.454 233.375 C 321.480 232.335 323.521 231.880 333.000 230.574 C 359.992 226.855 379.406 223.927 379.819 223.514 C 380.102 223.231 368.145 223.000 353.247 223.000 L 326.161 223.000 322.752 228.750 "/></g>
</svg>
